<?xml version="1.0" encoding="UTF-8"?>
<svg id="Layer_2" data-name="Layer 2" xmlns="http://www.w3.org/2000/svg" viewBox="0 0 180.15 164.5">
  <defs>
    <style>
      .cls-1 {
        fill: #777;
      }

      .cls-2, .cls-3 {
        fill: #fff;
      }

      .cls-3 {
        stroke: #fff;
        stroke-miterlimit: 10;
        stroke-width: 3px;
      }
    </style>
  </defs>
  <g id="Layer_2-2" data-name="Layer 2">
    <g>
      <g>
        <path class="cls-1" d="M5.9,90.31c.79-15.57,15.17-27.99,30.92-27.99h86.5c15.75,0,30.13,12.41,30.92,27.99.05.89.16,1.79.24,2.68l5.63,64.24c.35,3.9-2.73,7.27-6.65,7.27H6.68c-3.92,0-7-3.36-6.65-7.27"/>
        <path class="cls-1" d="M67.13,2.08h0c6.94,0,12.57,5.63,12.57,12.57v36.08h-22.91c-1.23,0-2.23-1-2.23-2.23V14.65c0-6.94,5.63-12.57,12.57-12.57Z" transform="translate(-2.12 6.19) rotate(-5.2)"/>
        <path class="cls-1" d="M165.88,103.21l-21.73,2.29v-19.43h33.57c1.34,0,2.43,1.09,2.43,2.43v.44c0,7.88-6.39,14.27-14.27,14.27Z"/>
        <path class="cls-1" d="M90.5,42.96l8.27-.77-.8-8.61,6.01-.54-1.97-21.61c-.63-6.91-6.74-12.01-13.66-11.38h0c-6.91.63-12.01,6.74-11.38,13.66l3.27,35.94,10.76-.98-.51-5.71Z"/>
      </g>
      <g>
        <g>
          <path class="cls-3" d="M36.09,106.83c7.05-7.02,14.2-11.62,21.24-17.31"/>
          <path class="cls-3" d="M36.09,89.53c7.05,5.69,14.19,10.29,21.24,17.31"/>
        </g>
        <g>
          <path class="cls-3" d="M73.09,106.83c7.05-7.02,14.2-11.62,21.24-17.31"/>
          <path class="cls-3" d="M73.09,89.53c7.05,5.69,14.19,10.29,21.24,17.31"/>
        </g>
        <path class="cls-2" d="M77.7,128.04c-.44.43-.88.77-1.34,1.07-3.87-5.58-8.41-6.98-10.19-9.18-1.8,2.19-6.31,3.59-10.2,9.14-.48-.28-.93-.62-1.37-1.03,4.87-7.27,9.76-8.47,9.54-11.83.03-1,.06-2,.09-3h3.83c.03,1,.06,2,.09,3-.25,3.36,4.67,4.56,9.54,11.83Z"/>
      </g>
    </g>
  </g>
</svg>