<svg width="51" height="52" viewBox="0 0 51 52" fill="none" xmlns="http://www.w3.org/2000/svg">
<path d="M45.3664 42.1926L37.0964 42.9627H37.0867L37.5964 48.6726L26.8367 49.6527L26.8352 49.637L5.63011 51.5668C4.4055 51.6783 3.31908 50.7731 3.20726 49.5481L0.139391 15.8374C-0.489515 8.92597 4.60716 2.80891 11.5183 2.17994C16.8733 1.69257 21.7512 4.64198 23.9695 9.20948C25.3284 4.31623 29.594 0.540597 34.9465 0.0526211C41.8664 -0.577384 47.9763 4.52265 48.6067 11.4326L50.5764 33.0426L44.5666 33.5826L45.3664 42.1926Z" fill="#777777"/>
<path d="M10.0435 31.0268C13.5155 26.3783 17.1701 23.2136 20.7071 19.3837Z" fill="white"/>
<path d="M10.0435 31.0268C13.5155 26.3783 17.1701 23.2136 20.7071 19.3837" stroke="white" stroke-width="2" stroke-miterlimit="10"/>
<path d="M9.12793 20.3862C13.2726 23.5552 17.4086 26.0496 21.6236 30.0367Z" fill="white"/>
<path d="M9.12793 20.3862C13.2726 23.5552 17.4086 26.0496 21.6236 30.0367" stroke="white" stroke-width="2" stroke-miterlimit="10"/>
<path d="M30.2153 29.2913C33.6874 24.6428 37.342 21.4781 40.879 17.6482Z" fill="white"/>
<path d="M30.2153 29.2913C33.6874 24.6428 37.342 21.4781 40.879 17.6482" stroke="white" stroke-width="2" stroke-miterlimit="10"/>
<path d="M29.2998 18.6507C33.4444 21.8197 37.5805 24.3142 41.7955 28.3012Z" fill="white"/>
<path d="M29.2998 18.6507C33.4444 21.8197 37.5805 24.3142 41.7955 28.3012" stroke="white" stroke-width="2" stroke-miterlimit="10"/>
</svg>
