<svg width="4616" height="629" viewBox="0 0 4616 629" fill="none" xmlns="http://www.w3.org/2000/svg">
<path fill-rule="evenodd" clip-rule="evenodd" d="M4578.61 139.387C4570.94 55.1142 4496.33 -7.02938 4412.04 0.640035C4346.78 6.57846 4294.78 52.6366 4278.2 112.246C4251.12 56.6253 4191.67 20.7212 4126.41 26.6587C4042.13 34.3281 3979.97 108.915 3987.64 193.188L4025.06 604.23C4026.41 619.166 4039.67 630.204 4054.6 628.845L4313.15 605.32L4313.16 605.412L4589.71 580.249C4605.62 578.801 4617.33 564.758 4615.88 548.851L4578.61 139.387Z" fill="#01BE64"/>
<path d="M3544.45 557V195.561H3639.64V258.131H3643.63C3656.94 213.533 3690.23 190.236 3730.83 190.236C3740.81 190.236 3753.46 191.568 3762.11 193.564V281.428C3752.8 278.765 3734.16 276.103 3720.18 276.103C3675.58 276.103 3642.97 307.388 3642.97 351.319V557H3544.45Z" fill="black"/>
<path d="M3316.81 564.322C3206.31 564.322 3138.42 492.434 3138.42 377.945C3138.42 266.119 3206.98 190.902 3312.81 190.902C3408 190.902 3482.55 250.809 3482.55 373.951V401.908H3235.6C3235.6 456.49 3268.22 490.437 3318.8 490.437C3352.09 490.437 3376.05 475.793 3386.03 453.827H3479.89C3465.91 520.39 3406 564.322 3316.81 564.322ZM3235.6 340.004H3389.36C3389.36 296.072 3358.74 264.788 3314.81 264.788C3269.55 264.788 3237.26 298.402 3235.6 340.004Z" fill="black"/>
<path d="M3095.15 195.561V269.447H3027.26V445.839C3027.26 474.461 3041.24 481.783 3061.21 482.449C3071.19 482.449 3088.5 481.783 3100.48 480.452V558.331C3089.83 560.328 3072.52 561.659 3047.89 561.659C2976.67 561.659 2928.08 529.709 2928.75 459.818V269.447H2878.82V195.561H2928.75V109.029H3027.26V195.561H3095.15Z" fill="black"/>
<path d="M2743.7 302.729C2739.7 277.435 2717.07 260.794 2684.46 260.794C2652.51 260.794 2627.88 276.103 2628.54 298.069C2627.88 314.044 2641.19 326.691 2675.14 334.013L2739.7 347.326C2809.6 361.97 2843.54 393.255 2844.21 445.174C2843.54 516.397 2779.64 564.322 2683.79 564.322C2585.94 564.322 2528.7 520.39 2520.71 449.833H2619.89C2624.55 478.456 2647.85 493.099 2683.79 493.099C2719.74 493.099 2743.7 478.456 2743.7 455.158C2743.7 436.521 2728.39 425.205 2694.44 417.883L2634.53 405.902C2565.97 392.589 2530.03 356.645 2530.7 303.394C2530.03 234.168 2589.94 190.902 2683.13 190.902C2774.32 190.902 2830.9 234.168 2836.22 302.729H2743.7Z" fill="black"/>
<path d="M2139.97 455.824C2139.97 375.282 2205.2 348.657 2274.43 344.663C2300.39 342.999 2348.98 340.67 2364.29 340.004V310.716C2363.63 280.763 2342.99 262.791 2306.38 262.791C2273.1 262.791 2251.8 278.1 2246.47 302.729H2152.62C2158.61 240.159 2213.19 190.902 2309.04 190.902C2387.59 190.902 2462.14 226.181 2462.14 313.379V557H2368.95V507.078H2366.29C2348.32 540.359 2314.37 563.656 2260.45 563.656C2191.23 563.656 2139.97 527.712 2139.97 455.824ZM2234.49 453.162C2234.49 481.118 2257.12 495.762 2288.41 495.762C2333.01 495.762 2364.96 465.809 2364.29 427.867V401.242C2349.31 401.908 2307.38 404.238 2290.41 405.902C2256.46 409.23 2234.49 425.205 2234.49 453.162Z" fill="black"/>
<path d="M1917.65 564.42C1808.48 564.42 1740.59 489.203 1740.59 377.377C1740.59 265.551 1808.48 191 1917.65 191C2026.81 191 2095.37 265.551 2095.37 377.377C2095.37 489.203 2026.81 564.42 1917.65 564.42ZM1918.31 487.872C1968.9 487.872 1994.86 440.612 1994.86 377.377C1994.86 313.476 1968.9 266.216 1918.31 266.216C1867.06 266.216 1840.43 313.476 1840.43 377.377C1840.43 440.612 1867.06 487.872 1918.31 487.872Z" fill="black"/>
<path d="M1697.33 195.532V269.417H1629.44V445.81C1629.44 474.432 1643.41 481.754 1663.38 482.42C1673.37 482.42 1690.67 481.754 1702.66 480.423V558.302C1692.01 560.299 1674.7 561.63 1650.07 561.63C1578.85 561.63 1530.26 529.68 1530.92 459.788V269.417H1481V195.532H1530.92V109H1629.44V195.532H1697.33Z" fill="black"/>
<path d="M1417.33 195.561V269.447H1349.44V445.839C1349.44 474.461 1363.41 481.783 1383.38 482.449C1393.37 482.449 1410.67 481.783 1422.66 480.452V558.331C1412.01 560.328 1394.7 561.659 1370.07 561.659C1298.85 561.659 1250.26 529.709 1250.92 459.818V269.447H1201V195.561H1250.92V109.029H1349.44V195.561H1417.33Z" fill="black"/>
<path d="M989.058 564.322C879.895 564.322 812 489.106 812 377.279C812 265.453 879.895 190.902 989.058 190.902C1098.22 190.902 1166.78 265.453 1166.78 377.279C1166.78 489.106 1098.22 564.322 989.058 564.322ZM989.724 487.774C1040.31 487.774 1066.27 440.514 1066.27 377.279C1066.27 313.379 1040.31 266.119 989.724 266.119C938.47 266.119 911.845 313.379 911.845 377.279C911.845 440.514 938.47 487.774 989.724 487.774Z" fill="black"/>
<path d="M528.514 347.991V557H430V75.082H525.851V258.797H529.845C546.486 216.862 583.095 190.902 637.677 190.902C712.894 190.902 762.816 241.49 762.816 326.691V557H664.303V343.997C664.303 299.4 640.34 272.775 599.071 272.775C557.801 272.775 528.514 300.066 528.514 347.991Z" fill="black"/>
<path d="M278.198 212.868C274.204 174.927 243.585 152.295 194.994 152.295C144.405 152.295 116.449 175.593 115.783 207.543C115.118 242.156 151.727 258.131 192.997 267.45L236.263 278.1C318.801 296.738 380.705 338.673 380.705 419.214C380.705 507.743 311.479 563.656 194.328 563.656C77.8423 563.656 3.29144 509.74 0.628906 406.567H97.8112C101.139 455.158 139.746 479.787 192.997 479.787C245.582 479.787 279.529 455.158 279.529 419.214C279.529 386.598 249.575 371.289 196.99 357.976L144.405 345.329C63.1983 325.36 13.2759 284.756 13.2759 214.199C13.2759 126.336 90.4893 68.4258 195.659 68.4258C302.16 68.4258 372.717 127.667 374.049 212.868H278.198Z" fill="black"/>
</svg>
