<?xml version="1.0" encoding="UTF-8"?>
<svg id="Layer_2" data-name="Layer 2" xmlns="http://www.w3.org/2000/svg" viewBox="0 0 51.57 85.96">
  <defs>
    <style>
      .cls-2 {
        fill: #60a5fa;
      }
      .cls-1 {
        fill: #60a5fa;
      }
    </style>
  </defs>
  <g id="Layer_2-2" data-name="Layer 2">
    <g>
      <path class="cls-2" d="M9.37,0c-1.9,2.33-2.19,5.77-.43,7.95,1.13,1.13,2.62,1.82,3.83,3.18,4.74,5.46-.48,12.21-6.79,12.09,1.06-1.68,2.21-2.91,2.91-4.58.48-1.21.62-2.74-.4-3.41-1.43-1.22-3.37-2.35-4.35-4.25C1.61,6.76,4.23-.09,9.37,0h0Z"/>
      <path class="cls-2" d="M22.87,0c-1.9,2.33-2.19,5.77-.43,7.95,1.13,1.13,2.62,1.82,3.83,3.18,4.74,5.46-.48,12.21-6.79,12.09,1.06-1.68,2.21-2.91,2.91-4.58.48-1.21.62-2.74-.4-3.41-1.43-1.22-3.37-2.35-4.35-4.25C15.11,6.76,17.73-.09,22.87,0h0Z"/>
      <path class="cls-2" d="M36.37,0c-1.9,2.33-2.19,5.77-.43,7.95,1.13,1.13,2.62,1.82,3.83,3.18,4.74,5.46-.48,12.21-6.79,12.09,1.06-1.68,2.21-2.91,2.91-4.58.48-1.21.62-2.74-.4-3.41-1.43-1.22-3.37-2.35-4.35-4.25C28.61,6.76,31.23-.09,36.37,0h0Z"/>
      <g>
        <path class="cls-1" d="M37.05,34.33h0c6.94,0,12.57,5.63,12.57,12.57v33.72c0,1.31-1.06,2.37-2.37,2.37h-22.77v-36.08c0-6.94,5.63-12.57,12.57-12.57Z" transform="translate(-5.16 3.6) rotate(-5.2)"/>
        <path class="cls-1" d="M13.64,36.46h0c6.94,0,12.57,5.63,12.57,12.57v36.08H3.3c-1.23,0-2.23-1-2.23-2.23v-33.85c0-6.94,5.63-12.57,12.57-12.57Z" transform="translate(-5.45 1.49) rotate(-5.2)"/>
      </g>
    </g>
  </g>
</svg>